<?xml version="1.0" encoding="UTF-8"?>
<svg xmlns="http://www.w3.org/2000/svg">
  <defs>
    <symbol id="login-phone" viewBox="0 0 22 22">
      <path fill-rule="evenodd" clip-rule="evenodd" d="M7.3334 18.7916L14.6667 18.7916C15.4261 18.7916 16.0417 18.176 16.0417 17.4166L16.0417 4.58331C16.0417 3.82392 15.4261 3.20831 14.6667 3.20831L7.33341 3.20831C6.57402 3.20831 5.95841 3.82392 5.95841 4.58331L5.95841 13.75C5.95841 14.0031 5.7532 14.2083 5.50007 14.2083C5.24694 14.2083 5.04174 14.0031 5.04174 13.75L5.04174 4.58331C5.04174 3.31766 6.06775 2.29165 7.33341 2.29165L14.6667 2.29165C15.9324 2.29165 16.9584 3.31766 16.9584 4.58331L16.9584 17.4166C16.9584 18.6823 15.9324 19.7083 14.6667 19.7083L7.3334 19.7083C6.06775 19.7083 5.04174 18.6823 5.04174 17.4166C5.04174 16.6573 5.65735 16.0416 6.41674 16.0416L13.7501 16.0416C14.0032 16.0416 14.2084 16.2468 14.2084 16.5C14.2084 16.7531 14.0032 16.9583 13.7501 16.9583L6.41674 16.9583C6.16361 16.9583 5.9584 17.1635 5.95841 17.4166C5.95841 18.176 6.57401 18.7916 7.3334 18.7916Z" fill="white"/>
    </symbol>
    <symbol id="login-password" viewBox="0 0 22 22">
      <g clip-path="url(#clip0_240_95)">
        <path fill-rule="evenodd" clip-rule="evenodd" d="M10.9628 2.29171C11.0992 2.29034 11.2291 2.3498 11.3172 2.45392C12.0246 3.28973 14.2941 5.04169 17.4846 5.04169C17.6698 5.04169 17.8368 5.15314 17.9078 5.32416C18.6351 7.07446 19.1703 9.88525 18.4035 12.6576C17.6278 15.4618 15.5342 18.1705 11.1159 19.6836C11.0235 19.7153 10.9235 19.7166 10.8303 19.6874C9.25256 19.1931 7.14115 18.0558 5.5367 16.1751C3.92088 14.2811 2.82643 11.6387 3.30938 8.18652C3.34445 7.93583 3.5761 7.76104 3.82679 7.79611C4.07748 7.83118 4.25227 8.06283 4.2172 8.31352C3.77406 11.4812 4.77143 13.8657 6.23407 15.5802C7.66013 17.2518 9.53517 18.2915 10.962 18.7666C15.009 17.3386 16.8372 14.8816 17.52 12.4132C18.1806 10.0247 17.7812 7.57505 17.171 5.95326C14.2189 5.85715 12.0149 4.42298 10.9732 3.42174C10.148 4.23 8.99252 4.79784 7.88408 5.18761C6.5965 5.64036 5.30321 5.87658 4.49507 5.95615C4.24316 5.98095 4.01883 5.79684 3.99403 5.54493C3.96923 5.29302 4.15334 5.0687 4.40525 5.04389C5.14883 4.97068 6.36931 4.74857 7.58 4.32285C8.80248 3.89298 9.94709 3.27887 10.6116 2.46099C10.6977 2.35513 10.8264 2.29308 10.9628 2.29171Z" fill="white"/>
      </g>
      <defs>
        <clipPath id="clip0_240_95">
          <rect width="21.5926" height="21.5926" fill="white"/>
        </clipPath>
      </defs>
    </symbol>
    <symbol id="sign-up-email" viewBox="0 0 22 22">
      <path fill-rule="evenodd" clip-rule="evenodd" d="M3.04971 4.28055C3.49745 4.04394 4.07045 4.06146 4.52425 4.44282L4.22937 4.7937L4.52425 4.44282L9.04369 8.24084C10.1973 9.21028 11.8026 9.21028 12.9562 8.24083L17.4756 4.44282C17.9294 4.06146 18.5024 4.04394 18.9501 4.28055C19.3938 4.51498 19.7083 4.99218 19.7083 5.57551V16.4261C19.7083 17.1922 19.1254 17.8749 18.3333 17.8749L3.6666 17.8749C2.87445 17.8749 2.2916 17.1922 2.2916 16.4261L2.2916 14.6666C2.2916 14.4134 2.4968 14.2082 2.74993 14.2082C3.00306 14.2082 3.20826 14.4134 3.20826 14.6666L3.20826 16.4261C3.20826 16.7541 3.44623 16.9582 3.6666 16.9582L18.3333 16.9582C18.5536 16.9582 18.7916 16.7541 18.7916 16.4261V5.57551C18.7916 5.33465 18.6674 5.16794 18.5219 5.09101C18.3804 5.01626 18.2137 5.01994 18.0654 5.14459L13.5459 8.9426C12.0514 10.1986 9.94849 10.1986 8.45394 8.9426L3.9345 5.14459C3.78618 5.01994 3.61945 5.01626 3.478 5.09101C3.33243 5.16794 3.20826 5.33465 3.20826 5.57551L3.20826 11.9166C3.20826 12.1697 3.00306 12.3749 2.74993 12.3749C2.4968 12.3749 2.2916 12.1697 2.2916 11.9166L2.2916 5.57551C2.2916 4.99218 2.60609 4.51498 3.04971 4.28055Z" fill="white"/>
    </symbol>
    <symbol id="sign-up-name" viewBox="0 0 16 18">
      <path fill-rule="evenodd" clip-rule="evenodd" d="M11.3113 1.37155C10.4422 0.487468 9.21553 0 7.78423 0C6.35293 0 5.12629 0.487468 4.25713 1.37155C3.38865 2.25495 2.91189 3.49881 2.91189 4.9483C2.91189 6.89971 3.76154 8.15745 4.81308 8.91247C5.01745 9.0592 5.22865 9.18648 5.44171 9.29625C4.26656 9.61914 3.31238 10.1821 2.5355 10.8803C1.3071 11.9843 0.54573 13.4047 0.0327864 14.6766C-0.0601363 14.907 0.0513204 15.1692 0.281733 15.2621C0.512143 15.355 0.774257 15.2435 0.867178 15.0131C1.35541 13.8025 2.0527 12.5239 3.1369 11.5494C4.2102 10.5848 5.68622 9.89659 7.78423 9.89659C9.74555 9.89659 11.1615 10.4981 12.2125 11.3612C13.2723 12.2315 13.9861 13.3888 14.4975 14.5329C14.8386 15.2962 14.2398 16.1944 13.3 16.1944H2.91948C2.67104 16.1944 2.46964 16.3958 2.46964 16.6443C2.46964 16.8927 2.67104 17.0941 2.91948 17.0941H13.3C14.7864 17.0941 15.9677 15.6175 15.3188 14.1658C14.7759 12.9512 13.9906 11.6572 12.7835 10.6659C12.067 10.0775 11.2105 9.60298 10.1849 9.31247C10.7334 9.00917 11.1843 8.6066 11.5431 8.15038C12.3194 7.16335 12.6566 5.9381 12.6566 4.9483C12.6566 3.49881 12.1798 2.25495 11.3113 1.37155ZM10.6698 2.00229C11.3491 2.69335 11.7569 3.69871 11.7569 4.9483C11.7569 5.75787 11.4749 6.78185 10.836 7.5942C10.2093 8.39093 9.23152 8.9969 7.78423 8.9969C7.19887 8.9969 6.189 8.7928 5.33782 8.18165C4.5098 7.58713 3.81158 6.59564 3.81158 4.9483C3.81158 3.69871 4.21931 2.69335 4.8987 2.00229C5.57742 1.31191 6.56203 0.89969 7.78423 0.89969C9.00642 0.89969 9.99103 1.31191 10.6698 2.00229Z" fill="white"/>
    </symbol>
    <symbol id="go-back" viewBox="0 0 21 14">
      <path d="M14.3886 13.4375C15.925 13.4375 19.51 12.9253 19.51 9.34031C19.51 5.7553 15.4129 5.24316 13.3643 5.24316H1.07282M1.07282 5.24316L5.16998 1.146M1.07282 5.24316L5.16998 9.34031" stroke="white" stroke-width="1.02429" stroke-linecap="round" stroke-linejoin="round"/>
    </symbol>
    <symbol id="instagram" viewBox="0 0 28 28">
      <path fill-rule="evenodd" clip-rule="evenodd" d="M8.62155 2.89924L8.64071 2.89893H16.8322C17.1058 2.89893 17.3422 3.09023 17.3993 3.35784C17.4563 3.62544 17.3185 3.8965 17.0686 4.00807C16.9982 4.0395 16.9261 4.07162 16.8523 4.10446C15.5071 4.70319 13.6195 5.54336 12.0456 6.86956C10.4035 8.2532 9.14457 10.1303 9.22024 12.789C9.29872 15.5469 10.6232 17.2014 12.1313 17.9172C13.6735 18.6492 15.4045 18.4161 16.4226 17.3998C17.4598 16.3644 17.7357 14.6726 17.2606 13.2064C16.7933 11.7643 15.6412 10.6555 13.9147 10.6555C13.5945 10.6555 13.3349 10.3959 13.3349 10.0757C13.3349 9.75549 13.5945 9.49593 13.9147 9.49593C16.2465 9.49593 17.7756 11.034 18.3637 12.8489C18.944 14.6398 18.6495 16.8152 17.2418 18.2204C15.815 19.6447 13.5344 19.8666 11.6342 18.9648C9.69985 18.0467 8.15101 15.9786 8.06118 12.822C7.97263 9.71072 9.4723 7.52154 11.2984 5.98284C12.2378 5.19131 13.2745 4.5626 14.2392 4.05846H8.65072C7.91275 4.08516 6.76643 4.40566 5.8093 5.29526C4.86574 6.17225 4.05869 7.6464 4.05869 10.0757V18.7141C4.07658 19.5504 4.37768 20.8249 5.21482 21.8782C6.03377 22.9085 7.39812 23.7705 9.65062 23.7705H18.7124C19.535 23.6894 20.7968 23.2757 21.8499 22.288C22.8961 21.3069 23.7707 19.7281 23.7707 17.2414V8.49396C23.7534 8.05122 23.5861 7.36706 23.1483 6.80037C22.7262 6.25407 22.0302 5.78423 20.8621 5.76449C19.698 5.74483 19.2054 6.20254 19.006 6.61091C18.896 6.83619 18.8562 7.0822 18.8704 7.30313C18.8852 7.53252 18.9543 7.68927 19.009 7.75905C19.3998 8.25736 19.7467 8.26955 19.9258 8.21601C20.1466 8.15005 20.2921 7.95066 20.2921 7.74399C20.2921 7.4238 20.5517 7.16423 20.8719 7.16423C21.1921 7.16423 21.4516 7.4238 21.4516 7.74399C21.4516 8.48991 20.9436 9.12212 20.2578 9.32701C19.5304 9.54433 18.7177 9.26664 18.0966 8.47457C17.8614 8.1747 17.7389 7.77442 17.7133 7.37765C17.6872 6.97241 17.7585 6.52309 17.9641 6.1021C18.3958 5.21793 19.3526 4.5793 20.8817 4.60513C22.4066 4.63089 23.4312 5.27003 24.0659 6.09147C24.6816 6.88848 24.9078 7.82512 24.9299 8.46325L24.9302 8.48331V17.2414C24.9302 20.0323 23.9346 21.9226 22.6431 23.1338C21.3693 24.3284 19.8409 24.832 18.7925 24.9276C18.775 24.9292 18.7574 24.93 18.7398 24.93H9.65062C7.05553 24.93 5.35274 23.9152 4.30709 22.5997C3.28149 21.3093 2.92001 19.772 2.89928 18.7316L2.89905 18.72L2.89916 10.0757C2.89916 7.36387 3.81271 5.56795 5.01989 4.44594C6.20954 3.34022 7.63858 2.93173 8.62155 2.89924Z" fill="white"/>
    </symbol>
    <symbol id="tiktok" viewBox="0 0 28 28">
      <path fill-rule="evenodd" clip-rule="evenodd" d="M13.7986 3.47845C13.7986 3.15825 14.0582 2.89868 14.3783 2.89868H17.625C17.9262 2.89868 18.1772 3.12923 18.2027 3.42928C18.3737 5.43798 19.2496 6.6033 20.2353 7.2737C21.2466 7.96142 22.4163 8.15527 23.165 8.12195C23.4849 8.10771 23.7557 8.35548 23.77 8.67536C23.7842 8.99524 23.5364 9.26609 23.2166 9.28033C22.2646 9.3227 20.837 9.08511 19.5833 8.23251C18.4031 7.42995 17.4124 6.10481 17.1089 4.05821H14.9581V16.1946C14.9581 18.1635 14.1785 19.6545 13.043 20.4529C11.905 21.253 10.442 21.32 9.27143 20.4721C7.82047 19.4212 7.57006 17.769 8.15198 16.4667C8.65729 15.3358 9.78748 14.4679 11.2476 14.4411V11.7979C10.1867 11.8669 8.82428 12.1374 7.6692 12.8551C6.33098 13.6867 5.21806 15.1473 5.21806 17.7841C5.21806 19.49 5.67948 20.7078 6.35864 21.5777C7.04186 22.4528 7.98002 23.0196 9.00157 23.3587C10.0252 23.6984 11.1132 23.8021 12.0563 23.7621C13.0158 23.7214 13.758 23.5352 14.1105 23.3516C15.547 22.6033 16.3603 21.8645 16.839 20.9267C17.3279 19.969 17.5091 18.7262 17.5091 16.8758V10.5177C17.5091 10.3177 17.6123 10.1317 17.782 10.0258C17.9518 9.91993 18.1641 9.90904 18.3438 9.99702C19.0694 10.3523 21.1011 11.128 23.2379 11.3023C23.5571 11.3284 23.7947 11.6082 23.7686 11.9273C23.7426 12.2464 23.4628 12.4841 23.1436 12.458C21.3984 12.3156 19.734 11.8097 18.6686 11.3972V16.8758C18.6686 18.769 18.4903 20.2421 17.8718 21.4539C17.2431 22.6856 16.2011 23.57 14.6462 24.38C14.0795 24.6752 13.1447 24.8765 12.1055 24.9206C11.0501 24.9654 9.81792 24.8513 8.63635 24.4592C7.45267 24.0664 6.3005 23.3874 5.44469 22.2913C4.58483 21.19 4.05853 19.7113 4.05853 17.7841C4.05853 14.744 5.38064 12.9121 7.05721 11.8703C8.69279 10.8539 10.6124 10.6192 11.8274 10.6192C12.1476 10.6192 12.4071 10.8787 12.4071 11.1989V15.0592C12.4071 15.228 12.3335 15.3885 12.2056 15.4986C12.0776 15.6088 11.908 15.6576 11.741 15.6325C10.5058 15.4464 9.59018 16.0903 9.21064 16.9397C8.83324 17.7843 8.98227 18.8309 9.95161 19.5331C10.6867 20.0655 11.6071 20.045 12.3761 19.5044C13.1476 18.9619 13.7986 17.8588 13.7986 16.1946V3.47845Z" fill="white"/>
    </symbol>
    <symbol id="safari" viewBox="0 0 28 28">
      <path fill-rule="evenodd" clip-rule="evenodd" d="M13.9999 4.08341C8.52311 4.08341 4.08326 8.52326 4.08326 14.0001C4.08326 15.8432 4.58556 17.5673 5.46039 19.0448C5.62453 19.322 5.53286 19.6798 5.25564 19.844C4.97843 20.0081 4.62064 19.9164 4.4565 19.6392C3.47805 17.9867 2.9166 16.0581 2.9166 14.0001C2.9166 7.87893 7.87877 2.91675 13.9999 2.91675C20.1211 2.91675 25.0833 7.87893 25.0833 14.0001C25.0833 20.1212 20.1211 25.0834 13.9999 25.0834C10.9803 25.0834 8.24165 23.875 6.24323 21.9168C6.11445 21.7906 6.05127 21.6119 6.07206 21.4328C6.09286 21.2537 6.19531 21.0943 6.34958 21.001L15.2961 15.5892L18.7769 9.77861L12.7678 12.9615L9.11198 18.2936C8.92981 18.5594 8.56672 18.6271 8.30101 18.4449C8.0353 18.2627 7.96758 17.8996 8.14976 17.6339L11.8867 12.1834C11.9401 12.1056 12.0115 12.0419 12.0948 11.9978L20.0792 7.76861C20.3105 7.64606 20.5952 7.69268 20.7754 7.88261C20.9556 8.07255 20.9872 8.35928 20.8526 8.58387L16.2224 16.313C16.1735 16.3947 16.1054 16.4631 16.0239 16.5124L7.62258 21.5945C9.34699 23.0442 11.5711 23.9167 13.9999 23.9167C19.4768 23.9167 23.9166 19.4769 23.9166 14.0001C23.9166 8.52326 19.4768 4.08341 13.9999 4.08341Z" fill="white"/>
    </symbol>
    <symbol id="laptop" viewBox="0 0 21 22">
      <path d="M4.98653 12.177V6.61661C4.98653 6.17791 5.35356 5.82227 5.80632 5.82227H15.6438C16.0966 5.82227 16.4636 6.17791 16.4636 6.61661V14.1103C16.4636 14.3893 16.6147 14.6479 16.8616 14.7914L18.0247 15.4676C18.7376 15.8821 18.4343 16.9431 17.6029 16.9431H3.84727C3.01582 16.9431 2.71253 15.8821 3.42549 15.4676L4.79182 14.6732C4.91923 14.5992 5.06501 14.56 5.2136 14.56H14.0043" stroke="white" stroke-width="0.855447" stroke-linecap="round" stroke-linejoin="round"/>
    </symbol>
  </defs>
</svg>
